<?xml version="1.0" encoding="utf-8" ?><svg xmlns="http://www.w3.org/2000/svg" xmlns:xlink="http://www.w3.org/1999/xlink" width="261" height="261" viewBox="0 0 261 261"><defs><linearGradient id="gradient_0" gradientUnits="userSpaceOnUse" x1="157.79706" y1="190.70395" x2="138.40433" y2="28.225981"><stop offset="0" stop-color="#1B95BA"/><stop offset="1" stop-color="#24E3E4"/></linearGradient></defs><path fill="url(#gradient_0)" d="M125.28 27.4381C128.494 26.7754 131.578 26.3771 134.718 25.7402C151.504 22.3834 168.235 18.7642 184.907 14.8837C186.518 19.5804 187.301 26.0314 188.343 31.0008C188.722 32.8117 188.744 34.6835 189.29 36.5022C188.183 36.802 186.72 37.1529 185.667 37.5289C185.932 39.231 186.027 40.1461 186.075 41.8683C189.506 40.9843 192.007 39.3433 192.115 44.6861C192.167 47.2386 193.223 50.4772 193.077 52.8746C191.88 54.4764 189.962 53.5092 188.4 54.4631C187.815 55.5321 188.795 63.5444 190.611 64.4337C192.137 65.1811 193.424 63.8105 194.394 64.5799C195.379 68.0975 195.535 74.9772 196.645 78.7568C198.339 79.1208 197.468 77.3855 199.736 79.2549C201.463 79.2957 203.887 76.676 205.435 75.6695C211.276 71.8709 217.464 67.4043 224.265 65.5908C235.43 68.8377 252.006 83.9367 257.863 94.0788C260.272 98.2504 261.214 102.388 259.851 107.283C257.773 114.74 249.965 120.594 242.076 118.641C239.807 118.08 238.147 116.561 236.776 114.655C228.354 112.707 224.159 108.648 225.964 99.5707C226.422 97.2696 227.488 95.5863 228.19 93.4676C226.435 92.0006 224.462 90.4245 222.862 88.8176C216.797 93.5665 211.18 98.5094 205.257 103.397C203.072 105.201 200.027 107.879 197.792 109.419C198.121 111.69 198.412 113.967 198.665 116.249L204.161 114.814C205.203 120.041 206.202 125.276 207.159 130.519C207.706 133.464 208.702 140.175 209.801 142.477L209.933 142.516C211.085 142.148 215.849 141.44 216.965 141.805C217.761 142.065 218.165 146.749 218.207 147.771C217.521 148.624 214.538 149.005 213.366 149.225L216.385 164.139C216.905 166.629 218.624 174.584 218.613 176.743C217.325 177.957 210.806 179.072 208.784 179.467C198.6 181.454 188.441 183.772 178.255 185.722C179.598 189.026 182.271 193.016 184.359 196.021C189.017 194.099 198.259 189.266 203.425 190.756C205.692 191.41 206.423 195.277 206.975 197.216C208.785 203.518 210.331 209.836 211.663 216.249C207.303 225.418 199.686 215.768 195.791 212.176C191.805 214.538 182.261 219.866 177.69 218.599C171.163 216.789 157.009 191.324 151.6 185.275C151.574 185.245 151.547 185.217 151.52 185.187C141.334 187.906 127.359 190.296 116.7 192.575C115.936 194.623 114.58 197.659 113.144 199.332C111.874 199.615 110.603 199.889 109.329 200.153C106.556 203.702 103.141 208.2 100.575 211.902C101.16 217.455 102.414 223.017 102.952 228.599C103.278 231.981 104.101 235.431 104.003 238.861C103.517 239.514 102.906 240.386 102.36 240.958C97.5219 241.837 76.3918 246.737 73.3794 244.663C72.6741 244.178 72.4239 242.998 72.332 242.203C71.9571 238.964 73.353 235.041 75.3769 232.548C76.8642 230.716 78.6928 229.184 80.1746 227.366C79.2231 221.674 77.6646 212.016 79.0294 206.533C73.7375 207.599 64.137 209.955 59.151 210.441C58.449 208.39 57.3557 202.566 56.9567 200.251C56.2142 195.943 53.7597 187.403 53.8068 183.397C54.6448 182.191 58.1902 181.539 59.8265 181.081L60.0578 180.906C60.0826 178.795 59.5882 175.995 59.1038 173.939L58.5557 173.685C56.606 174.324 54.0484 174.617 51.9227 175.072C51.2321 171.588 50.5353 168.177 50.0099 164.663C44.8276 166.009 41.1251 167.951 35.403 168.5C27.7955 169.23 22.2236 168.934 15.2575 165.642C12.8108 164.486 10.1403 163.897 7.99715 161.996C0.336447 155.781 -1.76176 142.259 4.38113 134.411C9.84052 127.436 19.7739 125.318 26.9214 131.106C30.0188 131.505 31.5601 131.5 34.1128 134.13C36.7199 136.815 37.5669 143.988 37.3983 147.565C44.9423 144.592 45.828 144.097 52.4456 139.453C52.1879 135.9 51.1883 132.366 50.1999 128.964L50.0152 129.028C48.5275 129.537 45.2425 129.985 43.6426 130.146C42.064 123.505 41.2801 119.099 38.9528 112.584C41.2869 112.362 42.7392 111.726 44.8428 110.807C43.8049 106.133 42.7278 101.469 41.6117 96.8136L41.2489 96.5859C39.6995 97.0532 36.1771 97.6325 34.4559 97.9675C34.1814 95.0671 32.5353 90.7052 33.1136 89.1333C34.1948 87.6884 37.3733 87.3187 39.2454 86.9163L39.3754 86.7731C39.5071 85.6031 37.6432 76.9656 37.2464 75.1759C35.0686 73.9059 35.8405 73.4247 34.7994 70.9326C33.6836 71.0445 29.9793 71.4956 29.0453 71.2712C28.4624 69.3763 28.0722 67.0855 27.7291 65.1176C26.8028 59.804 25.6824 54.6961 24.3468 49.4685C27.1888 48.5159 31.4883 47.8923 34.5286 47.276L51.0935 43.7591C58.598 42.1664 66.0626 40.3055 73.5847 38.7789C75.4287 38.4047 76.9102 38.1217 78.8033 38.0938C79.8026 39.2578 81.4593 41.4179 82.7055 42.0524C91.8592 40.096 101.179 37.6672 110.451 35.9735C113.909 35.3419 117.681 34.3568 121.124 34.1849C122.984 32.3908 123.733 29.6272 125.28 27.4381Z"/><path fill="#251135" d="M209.933 142.516C211.085 142.148 215.849 141.44 216.965 141.805C217.761 142.065 218.165 146.749 218.207 147.771C217.521 148.624 214.538 149.005 213.366 149.225L216.385 164.139C216.905 166.629 218.624 174.584 218.613 176.743C217.325 177.957 210.806 179.072 208.784 179.467C198.6 181.454 188.441 183.772 178.255 185.722C179.598 189.026 182.271 193.016 184.359 196.021C189.017 194.099 198.259 189.266 203.425 190.756C205.692 191.41 206.423 195.277 206.975 197.216C208.785 203.518 210.331 209.836 211.663 216.249C207.303 225.418 199.686 215.768 195.791 212.176C191.805 214.538 182.261 219.866 177.69 218.599C171.163 216.789 157.009 191.324 151.6 185.275C151.574 185.245 151.547 185.217 151.52 185.187C141.334 187.906 127.359 190.296 116.7 192.575C115.936 194.623 114.58 197.659 113.144 199.332C111.874 199.615 110.603 199.889 109.329 200.153C106.556 203.702 103.141 208.2 100.575 211.902C101.16 217.455 102.414 223.017 102.952 228.599C103.278 231.981 104.101 235.431 104.003 238.861C103.517 239.514 102.906 240.386 102.36 240.958C97.5219 241.837 76.3918 246.737 73.3794 244.663C72.6741 244.178 72.4239 242.998 72.332 242.203C71.9571 238.964 73.353 235.041 75.3769 232.548C76.8642 230.716 78.6928 229.184 80.1746 227.366C79.2231 221.674 77.6646 212.016 79.0294 206.533C73.7375 207.599 64.137 209.955 59.151 210.441C58.449 208.39 57.3557 202.566 56.9567 200.251C56.2142 195.943 53.7597 187.403 53.8068 183.397C54.6448 182.191 58.1902 181.539 59.8265 181.081C59.9484 182.486 60.7983 185.85 61.1083 187.411C62.1157 192.484 63.3393 197.445 64.0781 202.579C67.0743 202.121 70.4327 201.3 73.4581 200.699C80.3723 199.388 87.2657 197.969 94.1355 196.442C98.6589 195.461 105.469 194.428 109.545 192.926C110.516 190.573 111.254 188.826 112.447 186.556C114.731 185.925 117.194 185.367 119.533 184.966C130.083 183.16 140.956 180.139 151.518 178.684C152.9 179.666 155.169 181.822 156.725 183.068C160.203 182.711 164.438 181.55 167.994 180.86L197.69 174.823C201.681 174.009 206.891 172.693 210.858 172.401C209.365 164.682 208.12 158.38 206.21 150.644C208.039 150.267 209.872 149.91 211.709 149.573C210.885 147.138 210.282 145.067 209.933 142.516Z"/><path fill="#27A5C0" d="M159.126 188.181C164.854 189.537 167.803 188.329 173.382 186.79C175.153 189.221 176.909 192.468 178.452 195.114C179.686 196.958 181.234 199.443 182.74 200.991C186.21 200.263 189.922 198.564 193.261 197.24C196.08 196.128 198.945 195.137 201.848 194.267C203.369 201.932 205.774 208.198 207.059 216.17C202.953 213.562 199.246 211.393 197.696 206.399C193.548 208.563 183.05 213.862 179.013 214.789C175.235 212.076 169.605 203.242 166.485 199.072C165.531 198.196 160.612 190.192 159.126 188.181Z"/><path fill="#2379AC" d="M159.126 188.181C164.854 189.537 167.803 188.329 173.382 186.79C175.153 189.221 176.909 192.468 178.452 195.114C176.191 195.692 167.605 197.537 166.485 199.072C165.531 198.196 160.612 190.192 159.126 188.181Z"/><path fill="#27A5C0" d="M85.1769 205.38C89.398 204.323 97.4416 202.82 101.744 202.11C100.388 204.889 98.1285 207.656 96.6129 210.695C96.5847 217.224 97.4006 222.386 98.351 228.8C98.7331 231.378 98.8194 234.689 99.3228 237.157C93.0448 238.291 82.7774 240.599 76.6756 241.245C77.8038 234.823 79.5253 233.241 85.1189 230.317C84.6572 226.794 83.165 218.983 83.2267 216.075C82.3864 212.285 83.0385 208.596 85.1769 205.38Z"/><path fill="#2379AC" d="M85.1769 205.38C89.398 204.323 97.4416 202.82 101.744 202.11C100.388 204.889 98.1285 207.656 96.6129 210.695L96.2496 210.265C96.5501 210.288 83.4827 213.637 83.4932 213.631C83.3085 214.606 83.2713 215.08 83.2267 216.075C82.3864 212.285 83.0385 208.596 85.1769 205.38Z"/><path fill="#251135" d="M125.28 27.4381C128.494 26.7754 131.578 26.3771 134.718 25.7402C151.504 22.3834 168.235 18.7642 184.907 14.8837C186.518 19.5804 187.301 26.0314 188.343 31.0008C188.722 32.8117 188.744 34.6835 189.29 36.5022C188.183 36.802 186.72 37.1529 185.667 37.5289C185.932 39.231 186.027 40.1461 186.075 41.8683C189.506 40.9843 192.007 39.3433 192.115 44.6861C192.167 47.2386 193.223 50.4772 193.077 52.8746C191.88 54.4764 189.962 53.5092 188.4 54.4631C187.815 55.5321 188.795 63.5444 190.611 64.4337C192.137 65.1811 193.424 63.8105 194.394 64.5799C195.379 68.0975 195.535 74.9772 196.645 78.7568C198.339 79.1208 197.468 77.3855 199.736 79.2549C201.463 79.2957 203.887 76.676 205.435 75.6695C211.276 71.8709 217.464 67.4043 224.265 65.5908C235.43 68.8377 252.006 83.9367 257.863 94.0788C260.272 98.2504 261.214 102.388 259.851 107.283C257.773 114.74 249.965 120.594 242.076 118.641C239.807 118.08 238.147 116.561 236.776 114.655C228.354 112.707 224.159 108.648 225.964 99.5707C226.422 97.2696 227.488 95.5863 228.19 93.4676C226.435 92.0006 224.462 90.4245 222.862 88.8176C216.797 93.5665 211.18 98.5094 205.257 103.397C203.072 105.201 200.027 107.879 197.792 109.419C198.121 111.69 198.412 113.967 198.665 116.249L204.161 114.814C205.203 120.041 206.202 125.276 207.159 130.519C207.706 133.464 208.702 140.175 209.801 142.477C208.731 142.906 203.748 143.6 202.402 143.797C202.178 141.5 201.346 138.729 201.023 136.425C200.075 129.666 198.434 123.115 198.125 116.305C196.128 116.469 194.223 116.718 192.236 116.977C191.05 111.43 190.264 105.758 188.942 100.281C190.651 99.904 192.32 99.3735 193.996 98.8675C194.427 101.152 195.173 103.297 196.031 105.449C204.621 98.6213 213.805 89.4364 223.071 83.5603C227.714 87.5944 229.644 89.224 233.688 93.9477C228.367 99.394 227.096 106.109 234.928 109.968C234.963 108.789 234.777 107.132 235.764 106.477C236.19 106.195 237.723 106.066 238.158 106.294C239.787 107.146 239.432 110.544 240.349 112.066C240.766 112.997 241.534 114.006 242.613 114.265C248.875 115.772 254.116 111.596 255.766 105.765C256.717 102.406 256.334 99.7043 254.688 96.8799C249.272 87.5844 234.216 73.3487 224.153 70.2463C214.615 72.9873 199.239 85.5006 192.521 92.7422C192.483 91.0895 191.766 81.2958 191.106 80.4356L189.629 80.3037C188.892 79.5736 188.112 67.4796 187.789 65.4644C186.361 65.5052 184.267 65.7739 182.799 65.9209C182.469 62.6872 181.695 59.16 181.068 55.9461C182.799 55.7553 184.877 55.3399 186.622 55.0332C185.85 50.6011 185.019 46.6888 184.498 42.1996C182.569 42.679 180.092 43.1061 178.105 43.5069C177.784 41.9948 177.603 40.8033 177.4 39.2756C179.32 38.8253 181.005 38.4436 182.948 38.1213C181.654 32.3584 180.881 28.4884 180.084 22.6324C176.841 23.5822 173.443 24.3882 170.136 25.0722C154.272 28.3535 138.293 32.1429 122.364 34.9904C120.976 37.0216 119.547 39.4494 118.211 41.5608C115.659 42.3443 109.026 43.4936 106.051 44.1046C97.5232 45.8341 89.0097 47.6332 80.5114 49.5019C79.3585 48.0626 78.1847 46.6401 76.9903 45.2351C62.2425 47.887 47.1548 52.0962 32.5111 54.6808C33.4776 58.0007 35.2263 66.819 35.5157 70.1688C34.9957 70.5493 34.9749 70.4354 34.7994 70.9326C33.6836 71.0445 29.9793 71.4956 29.0453 71.2712C28.4624 69.3763 28.0722 67.0855 27.7291 65.1176C26.8028 59.804 25.6824 54.6961 24.3468 49.4685C27.1888 48.5159 31.4883 47.8923 34.5286 47.276L51.0935 43.7591C58.598 42.1664 66.0626 40.3055 73.5847 38.7789C75.4287 38.4047 76.9102 38.1217 78.8033 38.0938C79.8026 39.2578 81.4593 41.4179 82.7055 42.0524C91.8592 40.096 101.179 37.6672 110.451 35.9735C113.909 35.3419 117.681 34.3568 121.124 34.1849C122.984 32.3908 123.733 29.6272 125.28 27.4381Z"/><path fill="#251135" d="M50.1999 128.964C51.7113 128.394 55.3198 127.994 57.1436 127.707C58.0595 133.928 59.2964 138.482 60.0516 145.096C57.731 145.454 55.7414 145.784 53.3801 145.882C53.9711 149.41 57.5229 172.35 58.5557 173.685C56.606 174.324 54.0484 174.617 51.9227 175.072C51.2321 171.588 50.5353 168.177 50.0099 164.663C44.8276 166.009 41.1251 167.951 35.403 168.5C27.7955 169.23 22.2236 168.934 15.2575 165.642C12.8108 164.486 10.1403 163.897 7.99715 161.996C0.336447 155.781 -1.76176 142.259 4.38113 134.411C9.84052 127.436 19.7739 125.318 26.9214 131.106C30.0188 131.505 31.5601 131.5 34.1128 134.13C36.7199 136.815 37.5669 143.988 37.3983 147.565C44.9423 144.592 45.828 144.097 52.4456 139.453C52.1879 135.9 51.1883 132.366 50.1999 128.964Z"/><path fill="#2BC3D2" d="M16.1671 131.812C19.0609 131.751 20.7603 131.744 23.2733 133.362C21.5373 136.495 20.5267 138.678 21.2321 142.427C22.1907 147.523 23.8229 151.393 28.0868 154.457C25.7145 158.034 22.919 159.895 18.9079 161.172C16.5434 161.334 14.3583 161.397 12.3153 159.932C1.94572 152.494 2.00533 134.977 16.1671 131.812Z"/><path fill="#2BC3D2" d="M35.0101 151.864C41.3235 151.218 41.8502 150.02 46.8182 148.609C47.2847 149.182 47.2463 149.835 47.3206 150.604C47.8602 153.42 48.643 157.458 48.9128 160.284C47.8863 160.646 46.6574 161.119 45.6309 161.42C38.0806 164.259 31.2244 164.354 23.3181 164.027C27.0167 162.135 29.2373 160.188 31.3532 156.558C32.7378 154.182 32.9316 153.56 35.0101 151.864Z"/><path fill="#27A5C0" d="M47.3206 150.604C47.8602 153.42 48.643 157.458 48.9128 160.284C47.8863 160.646 46.6574 161.119 45.6309 161.42C45.3061 159.375 46.4861 152.858 47.3206 150.604Z"/><path fill="#2BC3D2" d="M27.0038 135.521C33.0855 135.102 34.2134 144.064 32.5068 148.391C32.2928 148.934 31.7273 149.447 31.2864 149.839C29.7149 150.16 28.4801 149.964 27.7006 148.47C25.9295 145.074 23.0004 138.177 27.0038 135.521Z"/><path fill="#251135" d="M41.6117 96.8136C43.9299 96.3442 46.0034 95.9499 48.2725 95.2422C49.6551 99.8941 50.6124 104.986 51.5943 109.765C49.5931 110.132 47.2443 110.622 45.256 110.887C47.8342 117.987 48.6127 121.617 50.0152 129.028C48.5275 129.537 45.2425 129.985 43.6426 130.146C42.064 123.505 41.2801 119.099 38.9528 112.584C41.2869 112.362 42.7392 111.726 44.8428 110.807C43.8049 106.133 42.7278 101.469 41.6117 96.8136Z"/><path fill="#251135" d="M35.5157 70.1688C36.5751 70.534 40.7163 69.6169 42.0876 69.3769C42.2588 70.3387 42.4273 71.4329 42.6615 72.3687L44.1912 73.5436C45.1643 77.6328 45.8309 80.9099 46.388 85.1134C44.145 85.6734 41.6265 86.3613 39.3754 86.7731C39.5071 85.6031 37.6432 76.9656 37.2464 75.1759C35.0686 73.9059 35.8405 73.4247 34.7994 70.9326C34.9749 70.4354 34.9957 70.5493 35.5157 70.1688Z"/><path fill="#251135" d="M34.4559 97.9675C34.1814 95.0671 32.5353 90.7052 33.1136 89.1333C34.1948 87.6884 37.3733 87.3187 39.2454 86.9163C39.8437 89.4835 40.5327 94.4597 41.2489 96.5859C39.6995 97.0532 36.1771 97.6325 34.4559 97.9675Z"/><path fill="#251135" d="M59.1038 173.939C60.2308 173.324 64.6014 172.891 66.0976 172.7C66.644 174.949 67.1464 177.566 67.3377 179.875C65.7967 180.132 61.4368 180.927 60.0578 180.906C60.0826 178.795 59.5882 175.995 59.1038 173.939Z"/><path fill="#251135" d="M143.61 84.202C145.369 84.0932 147.543 85.2121 147.202 86.9051C146.508 90.357 140.088 94.8952 137.564 97.2192C141.734 103.566 143.832 111.145 139.113 117.801C135.179 119.171 132.708 118.833 129.991 115.674C128.148 112.908 127.135 109.883 126.194 106.728C125.998 106.87 125.799 107.008 125.596 107.14C124.772 107.68 123.616 108.383 122.586 108.092C121.779 107.863 120.978 107.06 120.587 106.338C120.263 105.74 120.098 105.017 120.338 104.358C120.924 102.745 141.545 85.3244 143.61 84.202Z"/><path fill="#251135" d="M67.9365 98.5167C68.0656 98.5047 68.1949 98.4956 68.3244 98.4893C71.4231 98.3294 79.8077 102.336 83.2993 103.381C86.9294 104.468 91.0962 106.215 94.784 107.382C95.7312 107.682 97.2373 108.604 98.0225 109.223C98.8986 109.956 98.6779 111.918 97.8488 112.627C96.612 113.685 94.7696 113.496 93.2503 113.467L93.0114 113.824C93.6745 116.924 93.6794 120.129 93.0261 123.231C92.4139 125.448 90.1957 128.268 87.8226 127.961C78.3701 126.737 78.4399 114.914 79.3544 108.48C75.8797 106.788 61.9827 104.173 67.9365 98.5167Z"/><path fill="#251135" d="M115.406 125.603C118.993 125.391 121.271 125.5 124.733 126.779C127.594 127.836 132.957 130.923 134.166 133.764C134.543 134.645 134.534 135.644 134.141 136.519C132.208 140.903 126.96 133.573 124.702 132.514C119.65 130.142 116.619 130.144 111.272 131.68C105.684 133.708 104.343 135.977 102.025 141.044C101.569 141.823 100.483 143.789 99.4844 143.792C93.5676 143.808 97.9423 135.575 99.9205 133.371C104.639 128.114 108.525 126.158 115.406 125.603Z"/></svg>